<?xml version="1.0" encoding="utf-8"?>
<!-- Generator: Adobe Illustrator 24.0.1, SVG Export Plug-In . SVG Version: 6.00 Build 0)  -->
<svg version="1.1" id="Layer_1" xmlns="http://www.w3.org/2000/svg" xmlns:xlink="http://www.w3.org/1999/xlink" x="0px" y="0px"
	 viewBox="0 0 500 500" style="enable-background:new 0 0 500 500;" xml:space="preserve">
<style type="text/css">
	.st0{fill:#CD9E49;}
	.st1{fill:#1E2B30;}
	.st2{fill-rule:evenodd;clip-rule:evenodd;fill:#CD9E49;}
</style>
<g>
	<g>
		<path class="st0" d="M19.79,407.03c0,1.28,0.16,2.03,0.43,2.4c0.27,0.37,0.48,0.48,0.96,0.48c0.69,0,1.28-0.16,1.81-0.43
			c0.21-0.11,0.53-0.27,0.8-0.48l0.75,0.27l0.64,1.33c-0.64,0.75-1.65,1.33-3.09,1.76c-0.64,0.16-1.39,0.27-2.24,0.27
			c-3.52,0-5.81-2.13-5.81-5.81v-10.56h-2.19v-2.72h2.19v-2.93l2.08-2.51h3.68v5.44h4v2.72h-4V407.03z"/>
		<path class="st0" d="M34.08,395.94c1.55-1.65,3.95-2.72,6.77-2.72c2.83,0,5.17,1.07,6.72,2.72c1.6,1.71,2.51,4.11,2.51,6.67
			c0,3.09-0.91,5.55-2.51,7.25c-1.55,1.6-3.89,2.72-6.72,2.72c-2.83,0-5.23-1.12-6.77-2.72c-1.6-1.71-2.51-4.16-2.51-7.25
			C31.57,400.05,32.48,397.65,34.08,395.94z M43.2,397.65c-0.53-1.23-1.28-1.76-2.35-1.76c-1.12,0-1.81,0.53-2.4,1.76
			c-0.59,1.23-0.91,2.93-0.91,4.96c0,2.56,0.32,4.27,0.91,5.49c0.59,1.23,1.28,1.76,2.4,1.76c1.07,0,1.81-0.53,2.35-1.76
			c0.59-1.23,0.91-2.93,0.91-5.49C44.1,400.58,43.78,398.88,43.2,397.65z"/>
		<path class="st0" d="M76.73,393.54v18.93h-3.84l-1.17-1.49c-0.64,0.69-1.44,1.17-2.51,1.55l0.05-0.05
			c-0.59,0.27-1.33,0.37-2.13,0.37c-4.75,0-7.2-2.35-7.2-7.2v-6.83c0-2.13-0.27-3.09-2.03-3.09H57v-2.19h4.91
			c1.39,0,2.4,0.43,3.04,1.23v0.05c0.59,0.8,0.75,2.13,0.75,4v6.83c0,3.41,0.91,4.48,2.56,4.48c0.96,0,1.49-0.43,2.03-1.01
			c0.27-0.27,0.48-0.53,0.69-0.96v-14.61H76.73z"/>
		<path class="st0" d="M98.8,394.02c0.48,0.37,0.85,0.85,1.07,1.17c0.16,0.21,0.21,0.37,0.27,0.48c0.11,0.21,0.11,0.43,0.11,0.43
			l-0.21,0.43l-2.24,1.71c-0.43-0.64-0.91-1.12-1.55-1.44c-0.27-0.11-0.53-0.16-0.85-0.16c-1.33,0-2.13,0.32-2.67,0.8
			c0,0.27,0.05,0.53,0.11,0.8v0.75v13.49h-5.81v-13.65c0-1.01-0.11-1.87-0.37-2.45c-0.21-0.43-0.64-0.64-1.6-0.64h-0.85v-2.19h4.11
			c1.44,0,2.51,0.32,3.15,1.12c0.96-0.69,2.51-1.44,4.48-1.44C97.04,393.22,98.05,393.49,98.8,394.02z"/>
		<path class="st0" d="M110.1,398.82c0-2.13-0.27-3.09-2.03-3.09h-0.91v-2.19h4.91c1.39,0,2.4,0.43,3.04,1.23v0.05
			c0.59,0.8,0.75,2.13,0.75,4v13.7h-5.76V398.82z M112.55,390.82c-2.13,0-3.25-1.71-3.25-3.31c0-1.55,1.17-2.56,2.51-2.56
			c2.13,0,3.25,1.65,3.25,3.31C115.06,389.7,113.88,390.82,112.55,390.82z"/>
		<path class="st0" d="M133.08,407.89c0-1.23-0.96-2.03-2.93-2.93l-1.87-0.8c-2.99-1.28-4.96-2.99-4.96-5.6c0-1.76,0.85-3.15,2.13-4
			c1.33-0.91,3.2-1.33,5.28-1.33c3.04,0,5.12,0.59,6.19,1.6c1.17,1.12,1.07,3.25,1.07,5.23h-2.29c-0.32-2.4-1.44-4.16-4.27-4.16
			c-1.76,0-2.51,0.85-2.51,1.92c0,1.07,0.69,1.55,2.24,2.24l2.19,0.91c3.41,1.44,5.33,3.41,5.33,6.18c0,1.76-0.96,3.15-2.35,4.11
			c-1.39,0.8-3.36,1.28-5.6,1.28c-3.15,0-5.12-0.64-6.24-1.65c-1.12-1.12-1.01-3.2-1.01-5.23h2.29c0.21,2.29,1.55,4.16,4.21,4.16
			C132.33,409.81,133.08,408.95,133.08,407.89z"/>
		<path class="st0" d="M174.56,400.42v12.1h-5.81v-12.16c0-3.2-1.07-4.27-2.35-4.27c-1.07,0-1.92,0.37-2.51,0.91
			c0.16,0.43,0.27,0.96,0.43,1.65v0.05c0.05,0.48,0.05,1.07,0.05,1.71v12.1h-5.76v-12.16c0-3.2-1.07-4.27-2.4-4.27
			c-0.85,0-1.71,0.53-2.19,1.07v0.16c0.16,0.37,0.21,1.01,0.21,1.6v13.6h-5.81v-13.7c0-1.01-0.11-1.87-0.37-2.45
			c-0.21-0.43-0.64-0.64-1.6-0.64h-0.85v-2.19h4.11c1.28,0,2.56,0.32,3.25,1.23c0.96-0.75,2.51-1.55,4.53-1.55
			c1.39,0,2.67,0.37,3.63,0.85c0.53,0.32,1.01,0.64,1.39,0.96c1.01-0.91,2.56-1.81,5.17-1.81
			C171.89,393.22,174.56,395.46,174.56,400.42z"/>
	</g>
	<g>
		<g>
			<path class="st0" d="M40.35,366.43v10.41h-5v-10.46c0-2.75-0.92-3.67-2.02-3.67c-0.92,0-1.65,0.32-2.16,0.78
				c0.14,0.37,0.23,0.83,0.37,1.42v0.05c0.05,0.41,0.05,0.92,0.05,1.47v10.41h-4.95v-10.46c0-2.75-0.92-3.67-2.06-3.67
				c-0.73,0-1.47,0.46-1.88,0.92v0.14c0.14,0.32,0.18,0.87,0.18,1.38v11.7h-5v-11.79c0-0.87-0.09-1.61-0.32-2.11
				c-0.18-0.37-0.55-0.55-1.38-0.55h-0.73v-1.88h3.53c1.1,0,2.2,0.27,2.8,1.06c0.83-0.64,2.16-1.33,3.9-1.33
				c1.19,0,2.29,0.32,3.12,0.73c0.46,0.28,0.87,0.55,1.19,0.83c0.87-0.78,2.2-1.56,4.45-1.56
				C38.06,360.24,40.35,362.16,40.35,366.43z"/>
			<path class="st0" d="M78.08,367.21v9.59h-3.35l-0.96-1.24c-0.46,0.55-1.06,1.01-1.93,1.24h0.05c-0.51,0.23-1.19,0.32-1.93,0.32
				c-3.62,0-5.73-2.02-5.73-5.37c0-1.61,0.5-2.98,1.88-3.81c1.33-0.87,3.58-1.33,6.97-1.33h0.05c-0.09-3.12-1.01-4.08-2.52-4.08
				c-0.69,0-1.19,0.09-1.65,0.46c-0.51,0.41-0.87,1.06-1.1,2.34h-2.52c0-1.1-0.14-2.71,0.92-3.9c0.83-0.92,2.89-1.19,5-1.19
				C75.5,360.24,78.08,362.67,78.08,367.21z M73.12,368.95h-0.05c-2.71,0-3.72,0.92-3.72,2.8c0,2.16,0.64,2.89,1.56,2.89
				c0.78,0,1.24-0.37,1.65-0.83c0.18-0.23,0.37-0.55,0.55-0.83V368.95z"/>
			<path class="st0" d="M108.73,363.36v0.14c0.14,0.32,0.18,0.87,0.18,1.38v11.97h-5v-11.79c0-0.87-0.09-1.61-0.32-2.11
				c-0.18-0.37-0.55-0.55-1.38-0.55h-0.73v-1.88h3.53c1.24,0,2.16,0.27,2.71,0.96c0.37-0.28,0.78-0.55,1.33-0.73
				c0.78-0.32,1.84-0.5,3.12-0.5c4.08,0,6.42,1.93,6.42,6.19v10.41h-5v-10.46c0-2.71-1.06-3.67-2.48-3.67
				C109.97,362.72,109.23,362.99,108.73,363.36z"/>
			<path class="st0" d="M156.31,367.21v9.59h-3.35l-0.96-1.24c-0.46,0.55-1.06,1.01-1.93,1.24h0.05c-0.51,0.23-1.19,0.32-1.93,0.32
				c-3.62,0-5.73-2.02-5.73-5.37c0-1.61,0.5-2.98,1.88-3.81c1.33-0.87,3.58-1.33,6.97-1.33h0.05c-0.09-3.12-1.01-4.08-2.52-4.08
				c-0.69,0-1.19,0.09-1.65,0.46c-0.51,0.41-0.87,1.06-1.1,2.34h-2.52c0-1.1-0.14-2.71,0.92-3.9c0.83-0.92,2.89-1.19,5-1.19
				C153.74,360.24,156.31,362.67,156.31,367.21z M151.36,368.95h-0.05c-2.71,0-3.72,0.92-3.72,2.8c0,2.16,0.64,2.89,1.56,2.89
				c0.78,0,1.24-0.37,1.65-0.83c0.18-0.23,0.37-0.55,0.55-0.83V368.95z"/>
			<path class="st0" d="M188.57,372.85c0-1.06-0.83-1.74-2.52-2.52l-1.61-0.69c-2.57-1.1-4.27-2.57-4.27-4.82
				c0-1.51,0.73-2.71,1.84-3.44c1.15-0.78,2.75-1.15,4.54-1.15c2.61,0,4.4,0.5,5.32,1.38c1.01,0.96,0.92,2.8,0.92,4.5h-1.97
				c-0.28-2.06-1.24-3.58-3.67-3.58c-1.51,0-2.16,0.73-2.16,1.65c0,0.92,0.6,1.33,1.93,1.93l1.88,0.78
				c2.94,1.24,4.59,2.94,4.59,5.32c0,1.51-0.83,2.71-2.02,3.53c-1.19,0.69-2.89,1.1-4.82,1.1c-2.71,0-4.4-0.55-5.37-1.42
				c-0.96-0.96-0.87-2.75-0.87-4.5h1.97c0.18,1.97,1.33,3.58,3.62,3.58C187.93,374.51,188.57,373.77,188.57,372.85z"/>
			<path class="st0" d="M219.32,365.05c0-1.84-0.23-2.66-1.74-2.66h-0.78v-1.88h4.22c1.19,0,2.06,0.37,2.61,1.06v0.05
				c0.51,0.69,0.64,1.84,0.64,3.44v11.79h-4.96V365.05z M221.43,358.17c-1.84,0-2.8-1.47-2.8-2.84c0-1.33,1.01-2.2,2.16-2.2
				c1.84,0,2.8,1.42,2.8,2.84C223.58,357.21,222.57,358.17,221.43,358.17z"/>
			<path class="st0" d="M254.69,371.11v5.73h-4.96v-17.71c0-1.84-0.23-2.66-1.74-2.66h-0.78v-1.88h4.22c1.19,0,2.06,0.37,2.61,1.06
				v0.05c0.5,0.69,0.64,1.83,0.64,3.44v7.57l2.94-3.58c0.69-0.83,1.33-1.47,2.06-1.93c0.73-0.41,1.7-0.69,2.8-0.69h1.1v1.74
				c-1.38-0.09-2.25,0.23-3.21,1.38l-2.84,3.44l3.95,5.92c1.1,1.65,2.16,2.16,3.03,2.29v1.1l-0.27,0.41
				c-0.41,0.18-1.51,0.37-2.34,0.37c-1.84,0-3.76-0.64-5.05-2.75L254.69,371.11z"/>
			<path class="st0" d="M292.41,375.33c0,1.15-0.69,1.93-1.93,1.93c-1.19,0-1.88-0.78-1.88-1.93c0-1.1,0.69-1.88,1.88-1.88
				C291.73,373.45,292.41,374.23,292.41,375.33z"/>
			<path class="st0" d="M324.85,372.85c0-1.06-0.83-1.74-2.52-2.52l-1.61-0.69c-2.57-1.1-4.27-2.57-4.27-4.82
				c0-1.51,0.73-2.71,1.84-3.44c1.15-0.78,2.75-1.15,4.54-1.15c2.61,0,4.4,0.5,5.32,1.38c1.01,0.96,0.92,2.8,0.92,4.5h-1.97
				c-0.28-2.06-1.24-3.58-3.67-3.58c-1.51,0-2.16,0.73-2.16,1.65c0,0.92,0.6,1.33,1.93,1.93l1.88,0.78
				c2.94,1.24,4.59,2.94,4.59,5.32c0,1.51-0.83,2.71-2.02,3.53c-1.19,0.69-2.89,1.1-4.82,1.1c-2.71,0-4.4-0.55-5.37-1.42
				c-0.96-0.96-0.87-2.75-0.87-4.5h1.97c0.18,1.97,1.33,3.58,3.62,3.58C324.21,374.51,324.85,373.77,324.85,372.85z"/>
			<path class="st0" d="M367.39,367.21v9.59h-3.35l-0.96-1.24c-0.46,0.55-1.06,1.01-1.93,1.24h0.05c-0.51,0.23-1.19,0.32-1.93,0.32
				c-3.62,0-5.73-2.02-5.73-5.37c0-1.61,0.5-2.98,1.88-3.81c1.33-0.87,3.58-1.33,6.97-1.33h0.05c-0.09-3.12-1.01-4.08-2.52-4.08
				c-0.69,0-1.19,0.09-1.65,0.46c-0.51,0.41-0.87,1.06-1.1,2.34h-2.52c0-1.1-0.14-2.71,0.92-3.9c0.83-0.92,2.89-1.19,5-1.19
				C364.82,360.24,367.39,362.67,367.39,367.21z M362.43,368.95h-0.05c-2.71,0-3.72,0.92-3.72,2.8c0,2.16,0.64,2.89,1.56,2.89
				c0.78,0,1.24-0.37,1.65-0.83c0.18-0.23,0.37-0.55,0.55-0.83V368.95z"/>
		</g>
	</g>
	<polygon class="st0" points="236.35,179 153.02,139.42 68.21,180.04 68.21,157.33 152.99,116.72 238.44,157.31 	"/>
	<path class="st1" d="M343,257.28v64.27c0,9.11-21.96,11.78-24.1,1.34v-41.24c0-6.43,0-5.36,2.68-5.36h9.11v-16.07h-44.99v61.06
		c-1.87,12.32-24.1,12.86-24.1,0.54v-31.33c0.27-11.25,0.8-11.52,2.68-11.52h9.37v-16.07h-44.99v46.87
		c0,13.39-6.7,19.82-18.75,19.82h-13.93h-7.5V307.9c0-12.32-4.82-25.17-13.12-34.01c-8.3-8.57-21.42-15-35.89-15H89.65l6.16-6.16
		c4.55-4.28,8.57-6.7,12.86-6.16l7.5,4.55l2.14,2.14h8.03l7.5-7.77c-4.02-3.75-14.73-21.69-29.46-21.69h-0.27
		c-7.5,0.27-16.6,6.16-25.44,14.46l-43.92,42.85h100.96c12.32,0,19.28,10.71,19.28,26.78v21.69H37.16c-6.43,0-9.91-1.87-10.44-6.96
		v-9.37H10.65v10.18c0,8.57,0.27,14.19,4.28,19.01v-0.27l1.07,1.34c4.02,4.02,10.18,5.89,19.55,6.16h160.42h16.07h9.1
		c8.3-0.27,14.19-2.68,20.35-7.77c0.27-0.27,0.8-0.54,1.34-1.07l3.75-3.75c17.14,19.01,42.05,14.19,55.44,3.21
		c24.64,22.5,74.18,4.28,74.18-37.23v-24.1c0-4.82,0.54-5.36,2.41-5.36h9.37v-16.34H343z"/>
	<path class="st1" d="M234.36,137.52l0.14-0.29l-80.04-38.02v-0.25h-0.36h-0.18l-0.75-0.36l-0.75,0.36h-0.73h-0.36v0.52L68.2,139.23
		h0.02l-1.04,116.42h2.76v-60.49l81.42-38.67v53.16h0.36h2.4h0.36v-53.01l79.06,37.55l0.55-1.16l-0.14-0.07l0.14-0.29l-0.14-0.07
		l0.14-0.29l-0.14-0.07l0.14-0.29l-0.14-0.07l0.14-0.29l-0.14-0.07l0.14-0.29l-0.14-0.07l0.14-0.29l-0.14-0.07l0.14-0.29l-0.14-0.07
		l0.14-0.29l-0.14-0.07l0.14-0.29l-0.14-0.07l0.14-0.29l-0.14-0.07l0.14-0.29l-0.14-0.07l0.14-0.29l-0.14-0.07l0.14-0.29l-0.14-0.07
		l0.14-0.29l-0.14-0.07l0.14-0.29l-79.61-37.81v-45.67l79.49,37.76l0.55-1.16l-0.14-0.07l0.14-0.29l-0.14-0.07l0.14-0.29l-0.14-0.07
		l0.14-0.29l-0.14-0.07l0.14-0.29l-0.14-0.07l0.14-0.29l-0.14-0.07l0.14-0.29l-0.14-0.07l0.14-0.29l-0.14-0.07l0.14-0.29l-0.14-0.07
		l0.14-0.29L234.36,137.52z M151.35,104.46v45.26l-81.42,38.67v-45L151.35,104.46z"/>
	<path class="st1" d="M472.87,150.78c-8.57-8.57-23.3-14.46-38.56-14.46c-18.75,0-35.89,7.5-43.92,18.75h-0.27
		c-7.5,9.11-10.98,20.35-10.98,33.48v2.68c-0.8,8.57-2.14,12.05-4.55,14.46c-2.14,2.14-4.02,2.68-8.57,2.68h-15H331.2v-50.08
		c0-4.82,0.54-5.36,2.41-5.36h9.37v-16.07h-45.26v71.51h-7.76h-16.07h-7.5v-87.84c0-6.16,0.27-5.62,11.78-4.82v-16.6h-44.99v129.35
		h40.71h16.07h61.06h16.07h6.69c2.95-0.27,6.16-0.8,9.11-2.14c2.41-0.54,5.09-2.14,7.23-3.75c1.07,1.34,2.14,2.68,3.48,3.75
		c8.3,8.3,22.76,14.46,38.03,14.46c16.07,0,30.8-4.82,40.44-14.19c9.64-8.57,15.27-22.5,15.27-37.76
		C487.33,173.81,482.24,160.42,472.87,150.78z M448.76,212.37c-4.02,5.36-7.5,7.23-14.46,7.23c-6.43,0-10.18-2.14-14.46-8.3
		c-4.55-7.23-6.96-13.12-6.96-25.44c0-4.55,0.27-8.3,1.07-11.52v-2.95c6.43-10.98,9.64-14.46,19.55-14.46
		c6.43,0,9.91,1.87,14.19,8.3c4.55,6.7,6.16,13.12,6.16,25.98C453.85,202.46,453.05,207.28,448.76,212.37z"/>
	<path class="st2" d="M334.33,99.72c-0.11,2.18-0.74,4.72-1.61,7.2c-1.05,3-2.65,5.67-4.84,8.01c-1.24,1.33-2.28,2.86-3.4,4.32
		c-0.8,1.05-1.73,1.97-2.73,2.82c-2.05,1.73-4.13,3.44-5.99,5.38c-0.78,0.81-1.66,1.49-2.63,2.04c-0.45,0.25-0.93-0.01-1.02-0.54
		c-0.18-1.12-0.01-2.23,0.18-3.32c0.24-1.36,0.26-2.74,0.3-4.11c0.04-1.27-0.22-2.48-0.76-3.62c-0.96-2.02-2.11-3.91-3.75-5.48
		c-1.99-1.91-4.17-3.58-6.37-5.24c-1.47-1.1-2.95-2.18-4.43-3.26c-0.16-0.11-0.31-0.24-0.46-0.37c-1.44-1.26-1.57-1.87-0.71-3.58
		c0.5-1,1.09-1.92,1.86-2.76c0.71-0.76,1.37-1.61,1.89-2.51c1.03-1.78,2.39-3.26,3.75-4.78c1.88-2.09,3.88-4.08,5.51-6.4
		c0.37-0.53,0.84-1,1.29-1.47c1-1.03,2.03-2.05,3.04-3.07c0.19-0.19,0.36-0.39,0.55-0.56c0.84-0.75,1.36-0.79,2.27-0.15
		c1.34,0.95,2.69,1.88,4,2.86c2.25,1.69,4.53,3.35,6.7,5.14c2.61,2.15,4.61,4.83,6.12,7.85C334.05,96.01,334.36,97.44,334.33,99.72z
		"/>
	<path class="st0" d="M10.59,289.02c0.71-0.64,1.44-1.19,2.19-1.63c0.75-0.45,1.49-0.82,2.22-1.12c0.73-0.3,1.43-0.55,2.11-0.74
		c0.67-0.19,1.3-0.35,1.86-0.48c0.07,0,0.14,0.01,0.22,0.03c0.07,0.02,0.11,0.06,0.11,0.1c0,0.04-0.02,0.08-0.05,0.13
		c-0.03,0.05-0.09,0.08-0.16,0.1c-0.86,0.27-1.65,0.54-2.37,0.81c-0.72,0.27-1.37,0.55-1.97,0.84c-0.59,0.29-1.14,0.58-1.63,0.89
		c-0.49,0.31-0.94,0.63-1.34,0.97c-0.57,0.48-1.06,0.98-1.45,1.5c-0.4,0.52-0.72,1.03-0.97,1.55c-0.25,0.52-0.43,1.04-0.55,1.55
		c-0.11,0.51-0.17,1-0.17,1.48c0,0.8,0.11,1.48,0.34,2.05c0.22,0.57,0.53,1.04,0.91,1.41c0.38,0.37,0.82,0.64,1.33,0.81
		c0.5,0.17,1.04,0.26,1.59,0.26c0.72,0,1.42-0.13,2.11-0.4c0.68-0.26,1.32-0.62,1.93-1.06c0.6-0.44,1.15-0.95,1.65-1.53
		c0.5-0.58,0.93-1.18,1.29-1.81c0.36-0.63,0.64-1.26,0.84-1.9c0.2-0.64,0.3-1.23,0.3-1.78c0-0.34-0.04-0.75-0.12-1.22
		c-0.08-0.47-0.17-0.98-0.29-1.51c-0.12-0.54-0.24-1.09-0.37-1.66c-0.13-0.57-0.26-1.13-0.37-1.68c-0.12-0.55-0.21-1.06-0.29-1.55
		c-0.08-0.49-0.12-0.92-0.12-1.3c0-0.25,0-0.49,0.01-0.73c0.01-0.24,0.03-0.49,0.05-0.76c0.03-0.27,0.06-0.56,0.11-0.89
		c0.05-0.33,0.11-0.7,0.2-1.13c0.07-0.74,0.19-1.47,0.35-2.18c0.16-0.71,0.42-1.33,0.77-1.87c0.14-0.22,0.39-0.51,0.76-0.89
		c0.36-0.38,0.8-0.81,1.31-1.31c0.51-0.5,1.08-1.04,1.71-1.63c0.62-0.59,1.26-1.21,1.93-1.86c0.66-0.65,1.33-1.32,1.99-2.02
		c0.66-0.69,1.29-1.39,1.88-2.08c0.59-0.69,1.12-1.38,1.6-2.07c0.48-0.68,0.86-1.34,1.16-1.97c0.04-0.07,0.07-0.13,0.09-0.17
		c0.02-0.04,0.05-0.06,0.09-0.06c0.04,0,0.06,0.01,0.06,0.03c0,0.02,0.01,0.05,0.01,0.09c0,0.04-0.01,0.12-0.03,0.24
		c-0.02,0.12-0.04,0.27-0.08,0.43c-0.03,0.16-0.06,0.33-0.1,0.51c-0.04,0.18-0.07,0.33-0.1,0.47c-0.09,0.43-0.19,0.84-0.32,1.23
		c-0.13,0.38-0.28,0.75-0.45,1.11c-0.17,0.36-0.37,0.71-0.58,1.05c-0.21,0.35-0.45,0.7-0.72,1.05c-0.84,1.17-1.69,2.24-2.54,3.19
		c-0.86,0.96-1.68,1.84-2.47,2.64c-0.79,0.8-1.54,1.52-2.23,2.18c-0.7,0.65-1.3,1.25-1.81,1.8c-0.51,0.55-0.92,1.06-1.22,1.53
		c-0.3,0.47-0.45,0.92-0.45,1.34c0,0.22,0.02,0.49,0.06,0.81c0.04,0.33,0.11,0.73,0.22,1.22c0.1,0.48,0.23,1.06,0.39,1.72
		c0.16,0.66,0.35,1.44,0.59,2.32c0.1,0.37,0.18,0.74,0.25,1.09c0.07,0.36,0.12,0.69,0.16,1.01s0.07,0.61,0.09,0.88
		s0.03,0.5,0.03,0.7c-0.02,0.88-0.09,1.71-0.23,2.48c-0.14,0.77-0.28,1.52-0.42,2.25c-0.17,0.88-0.41,1.72-0.73,2.52
		c-0.32,0.8-0.7,1.53-1.13,2.2c-0.44,0.67-0.92,1.28-1.45,1.83c-0.53,0.54-1.09,1-1.69,1.38c-0.59,0.38-1.21,0.67-1.84,0.88
		c-0.63,0.21-1.27,0.31-1.9,0.31c-0.85,0-1.61-0.17-2.28-0.51c-0.67-0.34-1.23-0.8-1.68-1.39s-0.8-1.28-1.04-2.08
		c-0.24-0.8-0.35-1.66-0.35-2.58c0-0.22,0.01-0.49,0.02-0.81c0.02-0.32,0.06-0.68,0.13-1.07c0.07-0.39,0.17-0.81,0.3-1.26
		c0.13-0.45,0.32-0.91,0.56-1.39c0.24-0.48,0.54-0.96,0.9-1.45S10.08,289.5,10.59,289.02z"/>
	<path class="st0" d="M366.19,139.26c-0.33-0.16-0.26-0.79,0.21-1.9c1.01-2.2,1.85-4.2,2.52-5.98c0.67-1.78,1.15-3.31,1.44-4.56
		c0.53-2.15,0.61-3.98,0.25-5.47c-0.36-1.49-1.25-2.58-2.66-3.27c-0.71-0.35-1.5-0.55-2.35-0.61c-0.85-0.06-1.77,0-2.75,0.17
		c-0.98,0.17-2.01,0.45-3.1,0.83c-1.09,0.38-2.22,0.85-3.4,1.4c-0.8,0.36-1.55,0.66-2.24,0.88c-0.69,0.22-1.33,0.4-1.92,0.53
		c-0.59,0.13-1.14,0.21-1.65,0.25c-0.51,0.03-1,0.04-1.47,0.03l-0.01-0.52c0.37-0.59,0.79-1.18,1.23-1.77
		c0.45-0.59,0.94-1.18,1.49-1.76c0.54-0.59,1.15-1.17,1.83-1.74c0.68-0.57,1.45-1.13,2.31-1.66c1.32-0.8,2.67-1.48,4.06-2.05
		c1.39-0.56,2.77-0.96,4.13-1.21c1.36-0.24,2.66-0.32,3.92-0.23c1.26,0.09,2.4,0.39,3.43,0.89c2.26,1.1,3.53,2.85,3.81,5.26
		c0.27,2.41-0.43,5.34-2.12,8.81c-0.27,0.56-0.56,1.15-0.87,1.79c-0.31,0.64-0.63,1.25-0.96,1.84l0.37,0.18
		c3.17-3.33,6.33-6.17,9.48-8.53c3.15-2.36,6.34-4.07,9.58-5.15c1.61-0.51,3.11-0.79,4.51-0.84c1.4-0.05,2.67,0.2,3.8,0.75
		l-0.38,0.78c-0.39,0.8-0.82,1.47-1.3,2c-0.47,0.53-1,0.99-1.56,1.36c-0.57,0.37-1.17,0.68-1.82,0.94
		c-0.64,0.26-1.33,0.52-2.06,0.79c-0.75,0.26-1.54,0.55-2.38,0.86c-0.83,0.32-1.71,0.71-2.63,1.19c-2.5,1.33-5.21,3.15-8.15,5.46
		c-2.93,2.31-6.09,5-9.48,8.07c-0.98,0.86-1.71,1.45-2.19,1.78C366.64,139.2,366.33,139.33,366.19,139.26z"/>
	<path class="st0" d="M420.65,283.12c0-1.15,0.09-2.26,0.26-3.34c0.17-1.08,0.45-2.14,0.83-3.17c0.38-1.03,0.9-2.05,1.53-3.06
		c0.64-1,1.42-2.01,2.36-3.02c0.93-1.01,2.03-2.02,3.28-3.04c1.26-1.02,2.7-2.05,4.34-3.11v-0.15c-0.37-0.23-0.71-0.48-1.04-0.76
		c-0.34-0.27-0.68-0.51-1.01-0.74c-0.33-0.23-0.68-0.42-1.03-0.58c-0.35-0.16-0.73-0.24-1.12-0.24c-0.52,0-1.04,0.14-1.56,0.42
		c-0.52,0.28-1.06,0.64-1.62,1.1l-0.19-0.19c0.52-1.11,0.94-2.14,1.27-3.09c0.33-0.95,0.52-1.86,0.59-2.73
		c0.81-0.44,1.61-0.84,2.41-1.19c0.8-0.35,1.57-0.65,2.32-0.9c0.74-0.25,1.45-0.43,2.12-0.56c0.67-0.13,1.27-0.19,1.82-0.19
		c1.43,0,2.46,0.26,3.11,0.79c0.65,0.53,0.97,1.29,0.97,2.27c0,0.23-0.03,0.51-0.08,0.84c-0.05,0.33-0.12,0.7-0.2,1.09
		c-0.08,0.39-0.17,0.79-0.27,1.21c-0.1,0.42-0.2,0.82-0.28,1.21l0.08,0.08c0.23,0.06,0.53,0.12,0.91,0.17
		c0.37,0.06,0.77,0.13,1.21,0.19c0.44,0.08,0.9,0.15,1.36,0.21c0.47,0.08,0.91,0.16,1.32,0.25c0.41,0.09,0.77,0.18,1.09,0.28
		c0.32,0.1,0.54,0.21,0.66,0.34c-0.34,0.63-0.74,1.18-1.21,1.64c-0.47,0.46-0.97,0.84-1.52,1.14c-0.55,0.3-1.13,0.53-1.74,0.67
		c-0.61,0.15-1.23,0.22-1.84,0.22c-0.3,0-0.68-0.02-1.14-0.07c-0.46-0.04-1.01-0.16-1.66-0.35c-1.17,0.83-2.35,1.69-3.54,2.57
		c-1.19,0.88-2.32,1.8-3.41,2.74s-2.1,1.92-3.06,2.93c-0.95,1.01-1.78,2.06-2.47,3.14c-0.69,1.09-1.24,2.21-1.65,3.38
		c-0.4,1.17-0.61,2.38-0.61,3.62c0,1.43,0.2,2.76,0.62,4c0.41,1.24,0.98,2.42,1.71,3.52c0.73,1.1,1.59,2.14,2.57,3.12
		c0.98,0.98,2.05,1.92,3.21,2.82c1.15,0.9,2.37,1.77,3.64,2.59c1.27,0.83,2.55,1.64,3.84,2.45c1.27,0.81,2.54,1.61,3.78,2.4
		c1.25,0.79,2.43,1.61,3.56,2.44c0.13,0.09,0.19,0.18,0.19,0.27c0,0.1-0.04,0.15-0.11,0.15c-0.06,0-0.14-0.01-0.22-0.04
		c-0.08-0.03-0.25-0.09-0.5-0.19c-1.96-0.76-3.9-1.56-5.85-2.41c-1.94-0.85-3.8-1.8-5.56-2.84c-1.77-1.04-3.41-2.2-4.93-3.48
		c-1.52-1.28-2.84-2.74-3.96-4.39c-1.12-1.65-1.99-3.49-2.63-5.54C420.97,287.99,420.65,285.69,420.65,283.12z"/>
	<path class="st0" d="M188.11,263.34c4.91-1.29,9.11-2.7,12.61-4.24c3.5-1.54,6.47-3.06,8.91-4.59c2.44-1.52,4.46-2.99,6.07-4.4
		c1.6-1.41,2.98-2.65,4.13-3.72c1.15-1.1,2.19-1.97,3.11-2.63c0.92-0.66,1.9-0.99,2.94-0.99c0.71,0,1.33,0.24,1.85,0.72
		c0.52,0.48,1.01,1.01,1.48,1.58c0.49,0.58,1,1.1,1.52,1.58c0.52,0.48,1.15,0.72,1.89,0.72c0.33,0,0.62-0.11,0.86-0.33
		c0.25-0.22,0.37-0.49,0.37-0.82c0-0.3-0.06-0.67-0.16-1.09c-0.11-0.43-0.22-0.84-0.33-1.25c-0.14-0.44-0.25-0.84-0.35-1.19
		c-0.1-0.36-0.14-0.63-0.14-0.82c0-0.17,0.03-0.4,0.1-0.7c0.07-0.3,0.16-0.62,0.27-0.95c0.11-0.33,0.22-0.63,0.33-0.91
		c0.11-0.27,0.21-0.47,0.29-0.58c0.08-0.08,0.16-0.12,0.25-0.12c0.22,0,0.33,0.15,0.33,0.45c0,0.41,0.08,0.82,0.25,1.23
		c0.63,1.37,1.41,2.43,2.34,3.17c0.93,0.74,1.77,1.11,2.51,1.11c0.22,0,0.4-0.06,0.54-0.18c0.14-0.12,0.2-0.31,0.2-0.56
		c0-0.36-0.12-0.79-0.35-1.3c-0.23-0.51-0.49-1.02-0.76-1.54c-0.27-0.55-0.53-1.1-0.76-1.67c-0.23-0.56-0.35-1.09-0.35-1.58
		c0-0.19,0.03-0.46,0.08-0.8c0.06-0.34,0.12-0.69,0.21-1.03c0.08-0.34,0.17-0.67,0.27-0.99c0.1-0.31,0.19-0.56,0.27-0.72
		c0.03-0.03,0.08-0.04,0.16-0.04c0.22,0,0.38,0.15,0.49,0.45c0,0.16,0,0.32,0,0.45c0,0.14,0.03,0.29,0.08,0.45
		c0.08,0.44,0.27,0.91,0.58,1.4c0.27,0.49,0.56,1.04,0.86,1.62c0.3,0.59,0.58,1.25,0.82,1.97c0.25,0.73,0.37,1.53,0.37,2.41
		c0,0.91-0.1,1.72-0.29,2.45c-0.19,0.73-0.43,1.34-0.72,1.83c-0.29,0.49-0.61,0.88-0.97,1.15c-0.36,0.27-0.69,0.41-0.99,0.41
		c-0.55,0-1.09-0.15-1.63-0.45c-0.53-0.3-1.12-0.78-1.75-1.44l-0.16,0.08c-0.06,0.77-0.18,1.43-0.37,1.99
		c-0.19,0.56-0.43,1.03-0.72,1.4c-0.29,0.37-0.6,0.65-0.93,0.84c-0.33,0.19-0.64,0.29-0.95,0.29c-0.88,0-1.61-0.23-2.2-0.7
		c-0.59-0.47-1.15-0.99-1.67-1.56c-0.52-0.58-1.05-1.1-1.58-1.56c-0.53-0.47-1.19-0.7-1.95-0.7c-0.77,0-1.52,0.27-2.26,0.8
		c-0.74,0.54-1.58,1.24-2.51,2.12c-0.9,0.88-1.95,1.87-3.13,2.98c-1.18,1.11-2.57,2.24-4.18,3.39c-1.6,1.15-3.47,2.28-5.59,3.37
		c-2.13,1.1-4.6,2.06-7.43,2.88c-1.23,0.38-2.42,0.63-3.56,0.74c-1.14,0.11-2.31,0.16-3.52,0.16c-0.52,0-1.07,0.04-1.65,0.12
		c-0.58,0.08-1.11,0.16-1.6,0.25c-0.49,0.08-0.92,0.16-1.28,0.25c-0.36,0.08-0.59,0.12-0.7,0.12c-0.3,0-0.45-0.11-0.45-0.33
		C187.54,263.62,187.73,263.45,188.11,263.34z"/>
	<g>
		<rect x="212.84" y="383.77" class="st1" width="4.3" height="4.53"/>
		<rect x="206.49" y="383.77" class="st1" width="4.3" height="4.53"/>
		<path class="st1" d="M239.16,391.74c-4.74,0-9.99,2.22-10.47,8.47l-0.06,0.74h3.71l0.08-0.59c0.59-4.24,4.47-4.87,6.73-4.87
			c2.56,0,4.69,0.84,6.31,2.49c2.21,2.24,3.44,5.93,3.38,10.11l-0.03,1.96h-21.58h-1.8h-1.44c-3.03,0-4.7-1.69-4.83-4.88
			l-0.05-15.21l-3.88,1.22v1.77c-4.92-0.23-8.61,0.74-10.95,2.88c-1.81,1.65-2.75,3.97-2.81,6.87c-0.05,2.43,0.83,4.69,2.47,6.36
			c1.47,1.5,3.42,2.36,5.35,2.36c3.4,0,5.46-1.68,6.54-2.96c1.05,3.45,3.67,5.33,7.51,5.33h2.09h1.8h25.54v-5.69
			C252.78,400.19,249.21,391.74,239.16,391.74z M213.39,406.5c-0.87,0.89-2.07,1.32-3.65,1.32c-1.15,0-2.11-0.39-2.84-1.17
			c-1.14-1.2-1.48-3.06-1.43-3.95c0.29-5.38,4.31-6.03,8.58-6.03c0.22,0,0.45,0,0.68,0c0.19,0,0.38,0,0.55,0.01
			C215.34,400.14,215.43,404.42,213.39,406.5z"/>
		<rect x="270.64" y="417.33" class="st1" width="4.3" height="4.53"/>
		<rect x="276.99" y="417.33" class="st1" width="4.3" height="4.53"/>
		<path class="st1" d="M366.11,382.33v22.71c0,3.23-1.71,5.01-4.83,5.01h-2.88h-1.8h-2.18c-3.52,0-5.61-2.31-5.61-6.17v-21.55h-3.88
			v22.71c0,3.23-1.71,5.01-4.83,5.01h-2.69h-2.21h-0.84c-3.04,0-4.82-1.8-5.29-5.34v-12.97h-3.88v13.81c0,3.21-1.76,5.06-4.83,5.06
			c-3.9,0-5.29-3.36-5.29-6.5v-10.89h-3.88v12.32c0,3.21-1.76,5.06-4.83,5.06c-3.9,0-5.29-3.36-5.29-6.5v-10.89h-3.88v11.81
			c0,3.23-1.71,5.01-4.83,5.01h-3.06h-1.8h-0.79c-4.93,0-5.57-4.33-5.61-6.17v-10.65h-3.88v11.81c0,3.23-1.71,5.01-4.83,5.01h-2.74
			h-1.75h-1.16c-3.08,0-4.78-1.78-4.78-5.01v-22.71h-3.88v22.33c0,5.8,2.94,9.12,8.06,9.12h1.77h1.75h3.39
			c3.19,0,5.53-1.28,6.84-3.72c1.4,2,4.04,3.72,7.25,3.72h0.38h1.8h3.71c3.82,0,5.79-1.8,6.82-3.69c0.02,0.03,0.04,0.06,0.06,0.09
			c1.49,2.65,4.01,4.11,7.12,4.11c3.04,0,5.63-1.48,6.91-3.87c1.94,2.51,4.42,3.87,7.08,3.87c3.31,0,5.65-1.33,6.95-3.94
			c1.26,1.61,3.8,3.43,6.77,3.43h0.47h2.21h3.34c3.19,0,5.53-1.28,6.84-3.72c1.4,2,4.04,3.72,7.25,3.72h1.77h1.8h3.53
			c5.12,0,8.06-3.33,8.06-9.12v-22.33H366.11z"/>
	</g>
</g>
</svg>
